<?xml version="1.0" encoding="UTF-8"?>
<svg id="Layer_2" data-name="Layer 2" xmlns="http://www.w3.org/2000/svg" viewBox="0 0 792 253.93">
  <defs>
    <style>
      .cls-1 {
        fill: #fff;
        stroke-width: 0px;
      }
    </style>
  </defs>
  <g id="t-shirt">
    <g id="Derecha">
      <path class="cls-1" d="m722.94,1.62c1.4.02,9.38.48,18.37,7.48,9.06,7.06,15.51,10.03,16.87,10.62l2.2,5.25c-2.83-.74-10.53-3.34-21.64-11.69-3.73-2.81-6.91-4.74-9.58-6.08,0,0-.02-.01-.03-.02-.03-.02-.06-.03-.09-.04-4.62-2.29-7.69-2.76-9.41-2.76h0c1.33-1.37,2.83-2.44,3.31-2.78"/>
      <path class="cls-1" d="m789.72,162.15c.81,38.12,1.63,66.3,2.04,79.46-17.56,3.63-41.36,4.01-61,3.45l-3.03-124.87c12-.94,18.93-5.68,19.25-5.9,0,0,.01-.01.02-.02.03-.02.06-.05.08-.07,0,0,.02-.02.03-.03.03-.04.06-.08.08-.12,0,0,0-.01,0-.02.02-.04.03-.08.04-.12,0-.02,0-.03,0-.05,0-.02,0-.04.01-.06.01-.16,1.39-16.4,4.09-42.55,1.31-12.67-1.93-23.98-9.11-31.85-5.02-5.5-11.55-8.82-17.62-9,.08-2.89.65-14.57,4.44-21.76,2.48,1.29,5.42,3.11,8.86,5.7,13.14,9.87,21.5,11.84,23.16,12.16,1.86,2.71,19.48,28.64,22.03,40.15,1.89,8.54,5.26,32.31,6.6,95.49"/>
      <path class="cls-1" d="m723.96,31.74c5.88-.07,12.34,3.13,17.3,8.57,6.92,7.58,10.04,18.53,8.77,30.82-1.59,15.42-2.73,27.4-3.39,34.67-2.82-2.11-11.45-7.69-23.92-7.51-12.05.17-18.91,5.68-21.34,8.08-1.56-12.55-3.85-35.16-2.07-48.59,2.82-21.3,14.96-25.91,24.65-26.02"/>
      <path class="cls-1" d="m702.42,114.12c-.18-1.26-.47-3.36-.82-6.05,1.16-1.3,7.99-8.27,21.14-8.46,13.18-.2,22.16,6.48,23.76,7.76-.22,2.46-.38,4.24-.47,5.27-3.16-1.82-13.8-7.51-23.36-7.51-.48,0-.96.01-1.42.04-9.35.59-16.36,6.54-18.84,8.94"/>
      <path class="cls-1" d="m721.34,106.51c.43-.03.88-.04,1.33-.04,9.06,0,19.49,5.51,22.64,7.3-2.54,1.46-10.26,5.26-21.75,5.26-6.64,0-13.5-1.26-20.41-3.75,2.15-2.11,9.11-8.2,18.19-8.77"/>
      <path class="cls-1" d="m716.6,7.05c.81-.51,1.38-.87,1.74-1.19.18-.05.61-.13,1.29-.13,1.53,0,4.21.4,8.25,2.33-3.98,7.58-4.51,19.45-4.58,22.36-6.44.2-11.82,2.28-16.01,6.18-4.94,4.6-8.07,11.66-9.3,20.98-1.86,14.07.68,38.02,2.24,50.3,0,.04,0,.08.02.12.59,4.6,1.03,7.54,1.05,7.65,0,.01,0,.02,0,.04,0,0,0,.02,0,.02,0,0,0,.01,0,.02.01.04.02.08.04.11,0,0,0,.02.01.03.02.04.05.08.08.12,0,0,.01.02.02.02.03.03.05.05.09.07.01,0,.02.02.03.02.04.03.08.05.12.07,0,0,0,0,0,0h0s0,0,0,0c7.38,2.78,14.73,4.19,21.83,4.19.98,0,1.92-.03,2.84-.08l3.03,124.74c-17.31-.53-31.13-1.76-34.12-2.04.04-30.36.11-144.91-.87-182.95-.99-38.32,16.44-49.36,22.17-52.98"/>
      <path class="cls-1" d="m695.3,244.32c3.26.3,17,1.51,34.16,2.04l.14,6c-17.97-.72-31.4-2.19-34.31-2.52,0-.9,0-2.79,0-5.51"/>
      <path class="cls-1" d="m738.35,252.64c-2.54-.06-5.01-.13-7.41-.22l-.15-6.01c4.55.13,9.31.21,14.18.21,16.12,0,33.29-.86,46.83-3.64.1,3.2.17,5.33.2,6.3-4.29.56-30.92,3.89-53.65,3.37"/>
    </g>
    <g id="Espalda">
      <path class="cls-1" d="m443.15,93.36c-3.05,1.99-23.63,14.88-42.84,13.37-.02-1.32-.02-2.34-.02-3.02,0-.78,0-1.57,0-2.35-.02-11.93-.05-24.26,5.7-37.5,5.35-12.32,11.47-30.86,12.97-35.5,2.39,2.71,10,12.34,14.84,29.92,3.69,13.4,7.23,26.92,9.36,35.08"/>
      <path class="cls-1" d="m318.89,1.42c2.66-.85,11.37-1.42,21.74-1.42s19.08.57,21.74,1.42l6.84,3.59c-9.44.92-19.01,1.38-28.49,1.38s-19.11-.46-28.66-1.38l6.83-3.59Z"/>
      <path class="cls-1" d="m280.91,18.77c11.19-5.06,27.23-11.9,28.98-12.64,10.26,1.05,20.64,1.59,30.83,1.59s20.51-.54,30.66-1.59c1.74.74,17.78,7.58,28.98,12.64,9.93,4.49,15.88,7.71,17.52,8.62-1.11,3.43-7.53,23.1-13.11,35.94-5.86,13.49-5.83,25.97-5.81,38.04,0,.78,0,1.57,0,2.35,0,10.74,2.15,107.45,2.82,137.35-40.57,6.25-81.71,6.25-122.29,0,.67-29.89,2.82-126.61,2.82-137.35,0-.78,0-1.56,0-2.35.02-12.07.05-24.54-5.81-38.04-5.58-12.85-12-32.52-13.11-35.94,1.64-.91,7.58-4.13,17.52-8.62"/>
      <path class="cls-1" d="m247.47,58.28c4.84-17.58,12.44-27.2,14.84-29.91,1.51,4.64,7.62,23.18,12.97,35.5,5.75,13.24,5.73,25.57,5.7,37.5,0,.79,0,1.57,0,2.35,0,.68,0,1.7-.02,3.02-19.21,1.51-39.79-11.38-42.84-13.37,2.12-8.17,5.67-21.68,9.36-35.08"/>
      <path class="cls-1" d="m236.23,100.68c.22-.87.76-2.97,1.53-5.95,3.95,2.53,22.08,13.47,40.03,13.47,1.05,0,2.1-.04,3.14-.12-.02,1.63-.05,3.6-.09,5.85-23.62.79-41.87-11.32-44.62-13.25"/>
      <path class="cls-1" d="m279.31,249.24c.02-1.04.08-3.41.15-6.83,20.3,3.12,40.74,4.68,61.18,4.68s40.88-1.56,61.17-4.68c.08,3.42.13,5.79.15,6.83-40.7,6.25-81.96,6.25-122.66,0"/>
    </g>
    <g id="Frente">
      <path class="cls-1" d="m206.93,91.79c-4.97,3.25-10.35,5.96-15.84,8.2-4.36,1.78-8.87,3.24-13.49,4.18-2.41.49-4.85.85-7.31,1.01-1.18.08-2.36.11-3.55.1-.59,0-1.18-.03-1.77-.06-.3-.02-.59-.04-.88-.06,0-.44-.01-.88-.01-1.32-.1-10.42-.24-21.01,2.23-31.21,1.26-5.23,3.41-10.05,5.41-15.02,1.78-4.41,3.44-8.87,5.05-13.34,2.08-5.79,4.07-11.62,5.98-17.48,11.15,12.63,14.88,29.84,19.1,45.64,1.72,6.45,3.42,12.9,5.1,19.36-3.05,1.99-2.12-8.17,0,0"/>
      <path class="cls-1" d="m134.33,5.43c-1.91,10.02-8.98,18.57-18.39,22.44-8.82,3.63-19.23,2.88-27.35-2.17-5.74-3.57-10.33-8.91-12.69-15.28-.64-1.73-1.15-3.51-1.47-5.32-.05-.3-.29-.73.04-.86.32-.13.64-.25.96-.38,1.45-.57,2.9-1.15,4.35-1.72.88,9.08,6.88,16.89,15.22,20.45,9.06,3.86,19.85,1.54,26.81-5.3,4.09-4.02,6.67-9.45,7.24-15.15,1.03.41,2.05.81,3.08,1.22.63.25,1.26.5,1.89.75.73.29.47.5.32,1.33-.05.24.04-.22,0,0"/>
      <path class="cls-1" d="m125.65,9.55c-3.83,8.23-12.48,13.73-21.58,13.56-9.03-.16-17.43-5.7-21.09-13.97,7.12.58,14.28.75,21.43.75s14.3-.17,21.43-.75c-.06.14-.12.27-.18.41-.07.16.06-.14,0,0"/>
      <path class="cls-1" d="m127.71,1.93c-.19,1.99-.63,3.95-1.32,5.83-2.14.18-4.29.32-6.44.43-5.18.27-10.36.37-15.55.37s-10.16-.1-15.24-.36c-2.16-.11-4.32-.24-6.48-.43-.62-.05-.92-2.05-1.06-2.63-.25-1.06-.43-2.13-.53-3.22,7.74.74,15.54.92,23.31.92s15.57-.18,23.3-.92c0,.06-6.12.59,0,0"/>
      <path class="cls-1" d="m44.69,17.2c9.39-4.24,18.86-8.32,28.34-12.37,1.51,9.33,7.36,17.78,15.59,22.44,8.64,4.89,19.47,5.69,28.58,1.52,9.71-4.45,16.87-13.34,18.59-23.96,7.13,3.04,14.24,6.12,21.33,9.24,7.87,3.47,15.74,7,23.32,11.08.34.18.69.37,1.03.56.3.17.03.58-.07.89-.36,1.1-.72,2.2-1.09,3.3-1.19,3.59-2.42,7.17-3.67,10.73-1.55,4.41-3.15,8.8-4.84,13.15-1.82,4.68-4,9.24-5.53,14.03-4.27,13.37-3.67,27.61-3.45,41.48.18,11.04.4,22.08.63,33.12.3,14.82.62,29.65.94,44.47.29,13.44.59,26.87.89,40.31.06,2.54.11,5.07.17,7.61.02,1.09.05,2.18.07,3.27.01.48.02.95.03,1.43-1.57.24-3.15.48-4.73.7-12.1,1.72-24.28,2.88-36.48,3.49-24.39,1.21-48.88.19-73.08-3.04-1.46-.2-2.91-.4-4.37-.61-.73-.11-1.46-.21-2.18-.32-.36-.05-.73-.11-1.09-.16-.46-.07-.36-.04-.36-.4.02-1.04.05-2.08.07-3.13.06-2.45.11-4.91.16-7.36.14-6.1.27-12.2.41-18.3.32-14.71.65-29.42.96-44.12.29-13.74.58-27.48.85-41.23.15-7.6.36-15.21.37-22.82,0-10.54.09-21.12-2.66-31.39-1.36-5.08-3.55-9.8-5.49-14.67-1.74-4.37-3.37-8.77-4.95-13.2-2-5.61-3.92-11.25-5.76-16.91-.13-.4,1.25-.92,1.6-1.1,1.19-.64,2.39-1.26,3.6-1.87,4.04-2.05,8.13-3.99,12.26-5.85,10.34-4.67-9.93,4.49,0,0"/>
      <path class="cls-1" d="m11.24,56.71c1.95-7.1,4.65-14.02,8.28-20.44,1.89-3.34,4.01-6.6,6.56-9.48,2.23,6.85,4.57,13.66,7.04,20.42,1.62,4.42,3.29,8.83,5.12,13.17,2.17,5.17,4.02,10.32,5.04,15.85.97,5.23,1.33,10.55,1.43,15.86.05,2.57.04,5.14.04,7.71,0,1.16,0,2.32,0,3.48,0,.63-.01,1.26-.02,1.89-.69.05-1.38.09-2.06.11-9.5.25-18.94-2.58-27.55-6.4-3.24-1.43-6.4-3.04-9.47-4.8-.96-.55-1.9-1.11-2.84-1.7-.27-.17-.55-.34-.82-.52-.27-.17.46-2.23.56-2.6,2.77-10.63,5.59-21.25,8.5-31.84.07-.24.13-.47.2-.71,4.84-17.58-3.69,13.4,0,0"/>
      <path class="cls-1" d="m0,99.11c.51-1.99,1.02-3.97,1.53-5.95,5.02,3.21,10.4,5.93,15.93,8.16,8.57,3.47,17.93,5.89,27.25,5.19-.02,1.16-.03,2.32-.05,3.48-.01.67-.02,1.35-.03,2.02,0,.54-.2.36-.67.37-.44.01-.88.02-1.31.02-2.65,0-5.29-.14-7.92-.44-4.77-.54-9.49-1.56-14.07-3-6.4-2-12.61-4.78-18.31-8.32-.79-.49-1.58-1-2.34-1.54.22-.87,2.75,1.93,0,0"/>
      <path class="cls-1" d="m104.41,252.38c-11.95,0-23.89-.54-35.79-1.61-5.98-.54-11.95-1.2-17.9-2-1.46-.2-2.91-.4-4.37-.61-.73-.11-1.46-.21-2.18-.32-.36-.06-.73-.11-1.09-.17,0-.13,0-.25,0-.38.05-2.15.1-4.3.15-6.45,24.23,3.72,48.79,5.24,73.29,4.5,16.43-.5,32.82-2,49.06-4.5.05,2.1.1,4.2.14,6.3.01.62-.06.54-.72.64-.73.11-1.45.22-2.18.33-1.58.23-3.15.45-4.73.66-5.95.8-11.92,1.47-17.9,2-11.9,1.07-23.84,1.61-35.79,1.61"/>
      <path class="cls-1" d="m164.1,106.5c9.31.7,18.67-1.72,27.25-5.19,5.53-2.23,10.91-4.95,15.93-8.16.51,1.99,1.03,3.97,1.54,5.96-.52.36-1.05.71-1.58,1.06-2.12,1.36-4.33,2.6-6.58,3.73-7.57,3.81-15.74,6.51-24.13,7.75-2.99.44-6.02.7-9.05.74-.76.01-1.52.01-2.29,0-.33,0-.66-.01-.99-.03,0-.46-.01-.92-.02-1.39-.02-1.49-.05-2.98-.07-4.47,1.04.08.02,1.63,0,0"/>
    </g>
    <g id="Izquierda">
      <path class="cls-1" d="m550.52,1.62c-1.4.02-9.38.48-18.37,7.48-9.06,7.06-15.51,10.03-16.87,10.62l-2.2,5.25c2.83-.74,10.53-3.34,21.64-11.69,3.73-2.81,6.91-4.74,9.58-6.08,0,0,.02-.01.03-.02.03-.02.06-.03.09-.04,4.62-2.29,7.69-2.76,9.41-2.76h0c-1.33-1.37-2.83-2.44-3.31-2.78"/>
      <path class="cls-1" d="m483.74,162.15c-.81,38.12-1.63,66.3-2.04,79.46,17.56,3.63,41.36,4.01,61,3.45l3.03-124.87c-12-.94-18.93-5.68-19.25-5.9,0,0-.01-.01-.02-.02-.03-.02-.06-.05-.08-.07,0,0-.02-.02-.03-.03-.03-.04-.06-.08-.08-.12,0,0,0-.01,0-.02-.02-.04-.03-.08-.04-.12,0-.02,0-.03,0-.05,0-.02,0-.04-.01-.06-.01-.16-1.39-16.4-4.09-42.55-1.31-12.67,1.93-23.98,9.11-31.85,5.02-5.5,11.55-8.82,17.62-9-.08-2.89-.65-14.57-4.44-21.76-2.48,1.29-5.42,3.11-8.86,5.7-13.14,9.87-21.5,11.84-23.16,12.16-1.86,2.71-19.48,28.64-22.03,40.15-1.89,8.54-5.26,32.31-6.6,95.49"/>
      <path class="cls-1" d="m549.49,31.74c-5.88-.07-12.34,3.13-17.3,8.57-6.92,7.58-10.04,18.53-8.77,30.82,1.59,15.42,2.73,27.4,3.39,34.67,2.82-2.11,11.45-7.69,23.92-7.51,12.05.17,18.91,5.68,21.34,8.08,1.56-12.55,3.85-35.16,2.07-48.59-2.82-21.3-14.96-25.91-24.65-26.02"/>
      <path class="cls-1" d="m571.04,114.12c.18-1.26.47-3.36.82-6.05-1.16-1.3-7.99-8.27-21.14-8.46-13.18-.2-22.16,6.48-23.76,7.76.22,2.46.38,4.24.47,5.27,3.16-1.82,13.8-7.51,23.36-7.51.48,0,.96.01,1.42.04,9.35.59,16.36,6.54,18.84,8.94"/>
      <path class="cls-1" d="m552.12,106.51c-.43-.03-.88-.04-1.33-.04-9.06,0-19.49,5.51-22.64,7.3,2.54,1.46,10.26,5.26,21.75,5.26,6.64,0,13.5-1.26,20.41-3.75-2.15-2.11-9.11-8.2-18.19-8.77"/>
      <path class="cls-1" d="m556.86,7.05c-.81-.51-1.38-.87-1.74-1.19-.18-.05-.61-.13-1.29-.13-1.53,0-4.21.4-8.25,2.33,3.98,7.58,4.51,19.45,4.58,22.36,6.44.2,11.82,2.28,16.01,6.18,4.94,4.6,8.07,11.66,9.3,20.98,1.86,14.07-.68,38.02-2.24,50.3,0,.04,0,.08-.02.12-.59,4.6-1.03,7.54-1.05,7.65,0,.01,0,.02,0,.04,0,0,0,.02,0,.02,0,0,0,.01,0,.02-.01.04-.02.08-.04.11,0,0,0,.02-.01.03-.02.04-.05.08-.08.12,0,0-.01.02-.02.02-.03.03-.05.05-.09.07-.01,0-.02.02-.03.02-.04.03-.08.05-.12.07,0,0,0,0,0,0h0s0,0,0,0c-7.38,2.78-14.73,4.19-21.83,4.19-.98,0-1.92-.03-2.84-.08l-3.03,124.74c17.31-.53,31.13-1.76,34.12-2.04-.04-30.36-.11-144.91.88-182.95.99-38.32-16.44-49.36-22.17-52.98"/>
      <path class="cls-1" d="m578.16,244.32c-3.26.3-17,1.51-34.16,2.04l-.14,6c17.97-.72,31.4-2.19,34.31-2.52,0-.9,0-2.79,0-5.51"/>
      <path class="cls-1" d="m535.11,252.64c2.54-.06,5.01-.13,7.41-.22l.15-6.01c-4.55.13-9.31.21-14.18.21-16.12,0-33.29-.86-46.83-3.64-.1,3.2-.17,5.33-.2,6.3,4.29.56,30.92,3.89,53.65,3.37"/>
    </g>
  </g>
</svg>