<?xml version="1.0" encoding="UTF-8"?><svg id="Calque_2" xmlns="http://www.w3.org/2000/svg" viewBox="0 0 284.29 56.39"><defs><style>.cls-1{fill:#fff;}</style></defs><g id="Calque_1-2"><g><path class="cls-1" d="M75.44,35.38c0,5.07-3.13,6.91-6.55,6.91s-6.51-1.85-6.51-6.91V18.64h-7.37v16.75c0,8.76,4.66,12.02,13.88,12.02s13.91-3.26,13.91-12.02V18.64h-7.35v16.74Z"/><path class="cls-1" d="M45.81,37.43V9.49h-7.37v28.18c0,6.02,2.94,9.35,10.18,9.35h4.63v-5.36h-2.98c-3.23,0-4.47-.92-4.47-4.23Z"/><path class="cls-1" d="M102.41,18.25c-2.84,0-5.86,.65-8.3,1.82V9.5h-7.35v25.89c0,8.77,5.31,12.02,14.56,12.02s14.59-3.7,14.59-12.46v-4.51c0-6.94-3.98-12.18-13.5-12.18Zm6.58,17.13c0,5.07-4.02,6.91-7.45,6.91s-7.43-1.85-7.43-6.91v-5.09c0-5.07,4.01-6.93,7.43-6.93s7.45,1.86,7.45,6.93v5.09Z"/><path class="cls-1" d="M17.6,14.54c4.61,0,7.88,2.02,9.24,6.49h7.85c-1.4-6.62-7.31-11.53-17.09-11.53C6.37,9.5,0,16.08,0,26.37v5.05c0,9.89,6.15,15.99,17.6,15.99,9.77,0,15.69-4.9,17.09-11.53h-7.85c-1.36,4.47-4.63,6.47-9.24,6.47-7.29,0-9.94-4.81-9.94-12.19v-3.7c0-8.13,3.59-11.93,9.94-11.93Z"/><rect class="cls-1" x="276.02" y="39.02" width="6.86" height="6.86" transform="translate(51.87 210.08) rotate(-45.01)"/><path class="cls-1" d="M226.63,20.07c-2.45-1.17-5.48-1.82-8.3-1.82-9.51,0-13.49,5.23-13.49,12.18v4.52c0,8.76,5.33,12.46,14.6,12.46s14.54-3.26,14.54-12.02V9.5h-7.35v10.58Zm0,15.31c0,5.07-4,6.91-7.42,6.91s-7.44-1.85-7.44-6.91v-5.09c0-5.07,4.01-6.93,7.44-6.93s7.42,1.86,7.42,6.93v5.09Z"/><path class="cls-1" d="M282.77,1.7c-.38-1.38-3.49,.59-10.21,6.61,2.68,2.96,4.01,1.27,6.15,.48,1.73,3.26,2.41,17.98-8.81,22.41,.32-14.83,.46-30.7,.46-30.7,0-.42-.37-.55-.67-.5-3.08,.41-8.56,5.84-12.79,10.41,2.33,3.82,5.28,.4,7.61-.58,0,.64-.57,11.58-.3,22.72-11.55,.86-9.7-22.67-9.03-25.69,.29-2.41-7.45,2.92-11.28,6.48,1.22,2.18,2.92,1.73,5.03,.92-.76,10.57,6.68,20.18,15.33,19.95,.3,10.86,1.45,21.43,4.6,22.17,.42,.11,.76-11.02,1.02-23.39,20.81-6.45,12.89-31.3,12.89-31.3Z"/><path class="cls-1" d="M186.88,18.25c-9.25,0-14.56,5.45-14.56,14.23v1.14c0,8.49,5.08,13.78,14.95,13.78,4.98,0,9.28-1.05,13.52-4.4l-4.49-3.54c-3.11,2.07-5.44,2.83-8.96,2.83-4.36,0-7.88-2.37-7.88-6.91v-.61h22v-2.29c0-8.78-5.31-14.23-14.58-14.23Zm-7.42,12.14c0-5.17,4-7.19,7.42-7.19s7.44,2.02,7.44,7.19h-14.85Z"/><path class="cls-1" d="M147.39,38.27l-10.88-28.39h-10.62V47.02h7.36V24.86c0-1.43-.05-3.85-.21-5.43h.22l10.63,27.59h6.81l10.6-27.59h.22c-.13,1.57-.18,3.99-.18,5.43v22.17h7.36V9.88h-10.41l-10.9,28.39Z"/></g></g></svg>