<?xml version="1.0" encoding="UTF-8"?>
<svg id="Layer_2" data-name="Layer 2" xmlns="http://www.w3.org/2000/svg" viewBox="0 0 206.93 253.93">
  <defs>
    <style>
      .cls-1 {
        fill: #fff;
        stroke-width: 0px;
      }
    </style>
  </defs>
  <g id="Layer_1-2" data-name="Layer 1">
    <g>
      <path class="cls-1" d="m206.93,93.36c-3.05,1.99-23.63,14.88-42.84,13.37-.02-1.32-.02-2.34-.02-3.02,0-.78,0-1.57,0-2.35-.02-11.93-.05-24.26,5.7-37.5,5.35-12.32,11.47-30.86,12.97-35.5,2.39,2.71,10,12.34,14.84,29.92,3.69,13.4,7.23,26.92,9.36,35.08"/>
      <path class="cls-1" d="m82.67,1.42c2.66-.85,11.37-1.42,21.74-1.42s19.08.57,21.74,1.42l6.84,3.59c-9.44.92-19.01,1.38-28.49,1.38s-19.11-.46-28.66-1.38l6.83-3.59Z"/>
      <path class="cls-1" d="m44.69,18.77c11.19-5.06,27.23-11.9,28.98-12.64,10.26,1.05,20.64,1.59,30.83,1.59s20.51-.54,30.66-1.59c1.74.74,17.78,7.58,28.98,12.64,9.93,4.49,15.88,7.71,17.52,8.62-1.11,3.43-7.53,23.1-13.11,35.94-5.86,13.49-5.83,25.97-5.81,38.04,0,.78,0,1.57,0,2.35,0,10.74,2.15,107.45,2.82,137.35-40.57,6.25-81.71,6.25-122.29,0,.67-29.89,2.82-126.61,2.82-137.35,0-.78,0-1.56,0-2.35.02-12.07.05-24.54-5.81-38.04-5.58-12.85-12-32.52-13.11-35.94,1.64-.91,7.58-4.13,17.52-8.62"/>
      <path class="cls-1" d="m11.24,58.28c4.84-17.58,12.44-27.2,14.84-29.91,1.51,4.64,7.62,23.18,12.97,35.5,5.75,13.24,5.73,25.57,5.7,37.5,0,.79,0,1.57,0,2.35,0,.68,0,1.7-.02,3.02-19.21,1.51-39.79-11.38-42.84-13.37,2.12-8.17,5.67-21.68,9.36-35.08"/>
      <path class="cls-1" d="m0,100.68c.22-.87.76-2.97,1.53-5.95,3.95,2.53,22.08,13.47,40.03,13.47,1.05,0,2.1-.04,3.14-.12-.02,1.63-.05,3.6-.09,5.85-23.62.79-41.87-11.32-44.62-13.25"/>
      <path class="cls-1" d="m43.08,249.24c.02-1.04.08-3.41.15-6.83,20.3,3.12,40.74,4.68,61.18,4.68s40.88-1.56,61.17-4.68c.08,3.42.13,5.79.15,6.83-40.7,6.25-81.96,6.25-122.66,0"/>
    </g>
  </g>
</svg>