<?xml version="1.0" encoding="UTF-8"?>
<svg id="Layer_2" data-name="Layer 2" xmlns="http://www.w3.org/2000/svg" viewBox="0 0 208.81 250.45">
  <defs>
    <style>
      .cls-1 {
        fill: #fff;
        stroke-width: 0px;
      }
    </style>
  </defs>
  <g id="Layer_1-2" data-name="Layer 1">
    <g>
      <path class="cls-1" d="m206.93,89.86c-4.97,3.25-10.35,5.96-15.84,8.2-4.36,1.78-8.87,3.24-13.49,4.18-2.41.49-4.85.85-7.31,1.01-1.18.08-2.36.11-3.55.1-.59,0-1.18-.03-1.77-.06-.3-.02-.59-.04-.88-.06,0-.44-.01-.88-.01-1.32-.1-10.42-.24-21.01,2.23-31.21,1.26-5.23,3.41-10.05,5.41-15.02,1.78-4.41,3.44-8.87,5.05-13.34,2.08-5.79,4.07-11.62,5.98-17.48,11.15,12.63,14.88,29.84,19.1,45.64,1.72,6.45,3.42,12.9,5.1,19.36-3.05,1.99-2.12-8.17,0,0"/>
      <path class="cls-1" d="m134.33,3.5c-1.91,10.02-8.98,18.57-18.39,22.44-8.82,3.63-19.23,2.88-27.35-2.17-5.74-3.57-10.33-8.91-12.69-15.28-.64-1.73-1.15-3.51-1.47-5.32-.05-.3-.29-.73.04-.86.32-.13.64-.25.96-.38,1.45-.57,2.9-1.15,4.35-1.72.88,9.08,6.88,16.89,15.22,20.45,9.06,3.86,19.85,1.54,26.81-5.3,4.09-4.02,6.67-9.45,7.24-15.15,1.03.41,2.05.81,3.08,1.22.63.25,1.26.5,1.89.75.73.29.47.5.32,1.33-.05.24.04-.22,0,0"/>
      <path class="cls-1" d="m125.65,7.62c-3.83,8.23-12.48,13.73-21.58,13.56-9.03-.16-17.43-5.7-21.09-13.97,7.12.58,14.28.75,21.43.75s14.3-.17,21.43-.75c-.06.14-.12.27-.18.41-.07.16.06-.14,0,0"/>
      <path class="cls-1" d="m127.71,0c-.19,1.99-.63,3.95-1.32,5.83-2.14.18-4.29.32-6.44.43-5.18.27-10.36.37-15.55.37s-10.16-.1-15.24-.36c-2.16-.11-4.32-.24-6.48-.43-.62-.05-.92-2.05-1.06-2.63-.25-1.06-.43-2.13-.53-3.22,7.74.74,15.54.92,23.31.92s15.57-.18,23.3-.92c0,.06-6.12.59,0,0"/>
      <path class="cls-1" d="m44.69,15.27c9.39-4.24,18.86-8.32,28.34-12.37,1.51,9.33,7.36,17.78,15.59,22.44,8.64,4.89,19.47,5.69,28.58,1.52,9.71-4.45,16.87-13.34,18.59-23.96,7.13,3.04,14.24,6.12,21.33,9.24,7.87,3.47,15.74,7,23.32,11.08.34.18.69.37,1.03.56.3.17.03.58-.07.89-.36,1.1-.72,2.2-1.09,3.3-1.19,3.59-2.42,7.17-3.67,10.73-1.55,4.41-3.15,8.8-4.84,13.15-1.82,4.68-4,9.24-5.53,14.03-4.27,13.37-3.67,27.61-3.45,41.48.18,11.04.4,22.08.63,33.12.3,14.82.62,29.65.94,44.47.29,13.44.59,26.87.89,40.31.06,2.54.11,5.07.17,7.61.02,1.09.05,2.18.07,3.27.01.48.02.95.03,1.43-1.57.24-3.15.48-4.73.7-12.1,1.72-24.28,2.88-36.48,3.49-24.39,1.21-48.88.19-73.08-3.04-1.46-.2-2.91-.4-4.37-.61-.73-.11-1.46-.21-2.18-.32-.36-.05-.73-.11-1.09-.16-.46-.07-.36-.04-.36-.4.02-1.04.05-2.08.07-3.13.06-2.45.11-4.91.16-7.36.14-6.1.27-12.2.41-18.3.32-14.71.65-29.42.96-44.12.29-13.74.58-27.48.85-41.23.15-7.6.36-15.21.37-22.82,0-10.54.09-21.12-2.66-31.39-1.36-5.08-3.55-9.8-5.49-14.67-1.74-4.37-3.37-8.77-4.95-13.2-2-5.61-3.92-11.25-5.76-16.91-.13-.4,1.25-.92,1.6-1.1,1.19-.64,2.39-1.26,3.6-1.87,4.04-2.05,8.13-3.99,12.26-5.85,10.34-4.67-9.93,4.49,0,0"/>
      <path class="cls-1" d="m11.24,54.78c1.95-7.1,4.65-14.02,8.28-20.44,1.89-3.34,4.01-6.6,6.56-9.48,2.23,6.85,4.57,13.66,7.04,20.42,1.62,4.42,3.29,8.83,5.12,13.17,2.17,5.17,4.02,10.32,5.04,15.85.97,5.23,1.33,10.55,1.43,15.86.05,2.57.04,5.14.04,7.71,0,1.16,0,2.32,0,3.48,0,.63-.01,1.26-.02,1.89-.69.05-1.38.09-2.06.11-9.5.25-18.94-2.58-27.55-6.4-3.24-1.43-6.4-3.04-9.47-4.8-.96-.55-1.9-1.11-2.84-1.7-.27-.17-.55-.34-.82-.52-.27-.17.46-2.23.56-2.6,2.77-10.63,5.59-21.25,8.5-31.84.07-.24.13-.47.2-.71,4.84-17.58-3.69,13.4,0,0"/>
      <path class="cls-1" d="m0,97.18c.51-1.99,1.02-3.97,1.53-5.95,5.02,3.21,10.4,5.93,15.93,8.16,8.57,3.47,17.93,5.89,27.25,5.19-.02,1.16-.03,2.32-.05,3.48-.01.67-.02,1.35-.03,2.02,0,.54-.2.36-.67.37-.44.01-.88.02-1.31.02-2.65,0-5.29-.14-7.92-.44-4.77-.54-9.49-1.56-14.07-3-6.4-2-12.61-4.78-18.31-8.32-.79-.49-1.58-1-2.34-1.54.22-.87,2.75,1.93,0,0"/>
      <path class="cls-1" d="m104.41,250.45c-11.95,0-23.89-.54-35.79-1.61-5.98-.54-11.95-1.2-17.9-2-1.46-.2-2.91-.4-4.37-.61-.73-.11-1.46-.21-2.18-.32-.36-.06-.73-.11-1.09-.17,0-.13,0-.25,0-.38.05-2.15.1-4.3.15-6.45,24.23,3.72,48.79,5.24,73.29,4.5,16.43-.5,32.82-2,49.06-4.5.05,2.1.1,4.2.14,6.3.01.62-.06.54-.72.64-.73.11-1.45.22-2.18.33-1.58.23-3.15.45-4.73.66-5.95.8-11.92,1.47-17.9,2-11.9,1.07-23.84,1.61-35.79,1.61"/>
      <path class="cls-1" d="m164.1,104.57c9.31.7,18.67-1.72,27.25-5.19,5.53-2.23,10.91-4.95,15.93-8.16.51,1.99,1.03,3.97,1.54,5.96-.52.36-1.05.71-1.58,1.06-2.12,1.36-4.33,2.6-6.58,3.73-7.57,3.81-15.74,6.51-24.13,7.75-2.99.44-6.02.7-9.05.74-.76.01-1.52.01-2.29,0-.33,0-.66-.01-.99-.03,0-.46-.01-.92-.02-1.39-.02-1.49-.05-2.98-.07-4.47,1.04.08.02,1.63,0,0"/>
    </g>
  </g>
</svg>