<?xml version="1.0" encoding="UTF-8"?>
<svg id="Layer_2" data-name="Layer 2" xmlns="http://www.w3.org/2000/svg" viewBox="0 0 97.62 251.08">
  <defs>
    <style>
      .cls-1 {
        fill: #fff;
        stroke-width: 0px;
      }
    </style>
  </defs>
  <g id="Layer_1-2" data-name="Layer 1">
    <g>
      <path class="cls-1" d="m28.56,0c1.4.02,9.38.48,18.37,7.48,9.06,7.06,15.51,10.03,16.87,10.62l2.2,5.25c-2.83-.74-10.53-3.34-21.64-11.69-3.73-2.81-6.91-4.74-9.58-6.08,0,0-.02-.01-.03-.02-.03-.02-.06-.03-.09-.04-4.62-2.29-7.69-2.76-9.41-2.76h0c1.33-1.37,2.83-2.44,3.31-2.78"/>
      <path class="cls-1" d="m95.34,160.54c.81,38.12,1.63,66.3,2.04,79.46-17.56,3.63-41.36,4.01-61,3.45l-3.03-124.87c12-.94,18.93-5.68,19.25-5.9,0,0,.01-.01.02-.02.03-.02.06-.05.08-.07,0,0,.02-.02.03-.03.03-.04.06-.08.08-.12,0,0,0-.01,0-.02.02-.04.03-.08.04-.12,0-.02,0-.03,0-.05,0-.02,0-.04.01-.06.01-.16,1.39-16.4,4.09-42.55,1.31-12.67-1.93-23.98-9.11-31.85-5.02-5.5-11.55-8.82-17.62-9,.08-2.89.65-14.57,4.44-21.76,2.48,1.29,5.42,3.11,8.86,5.7,13.14,9.87,21.5,11.84,23.16,12.16,1.86,2.71,19.48,28.64,22.03,40.15,1.89,8.54,5.26,32.31,6.6,95.49"/>
      <path class="cls-1" d="m29.58,30.12c5.88-.07,12.34,3.13,17.3,8.57,6.92,7.58,10.04,18.53,8.77,30.82-1.59,15.42-2.73,27.4-3.39,34.67-2.82-2.11-11.45-7.69-23.92-7.51-12.05.17-18.91,5.68-21.34,8.08-1.56-12.55-3.85-35.16-2.07-48.59,2.82-21.3,14.96-25.91,24.65-26.02"/>
      <path class="cls-1" d="m8.03,112.5c-.18-1.26-.47-3.36-.82-6.05,1.16-1.3,7.99-8.27,21.14-8.46,13.18-.2,22.16,6.48,23.76,7.76-.22,2.46-.38,4.24-.47,5.27-3.16-1.82-13.8-7.51-23.36-7.51-.48,0-.96.01-1.42.04-9.35.59-16.36,6.54-18.84,8.94"/>
      <path class="cls-1" d="m26.95,104.89c.43-.03.88-.04,1.33-.04,9.06,0,19.49,5.51,22.64,7.3-2.54,1.46-10.26,5.26-21.75,5.26-6.64,0-13.5-1.26-20.41-3.75,2.15-2.11,9.11-8.2,18.19-8.77"/>
      <path class="cls-1" d="m22.22,5.43c.81-.51,1.38-.87,1.74-1.19.18-.05.61-.13,1.29-.13,1.53,0,4.21.4,8.25,2.33-3.98,7.58-4.51,19.45-4.58,22.36-6.44.2-11.82,2.28-16.01,6.18-4.94,4.6-8.07,11.66-9.3,20.98-1.86,14.07.68,38.02,2.24,50.3,0,.04,0,.08.02.12.59,4.6,1.03,7.54,1.05,7.65,0,.01,0,.02,0,.04,0,0,0,.02,0,.02,0,0,0,.01,0,.02.01.04.02.08.04.11,0,0,0,.02.01.03.02.04.05.08.08.12,0,0,.01.02.02.02.03.03.05.05.09.07.01,0,.02.02.03.02.04.03.08.05.12.07,0,0,0,0,0,0h0s0,0,0,0c7.38,2.78,14.73,4.19,21.83,4.19.98,0,1.92-.03,2.84-.08l3.03,124.74c-17.31-.53-31.13-1.76-34.12-2.04.04-30.36.11-144.91-.87-182.95C-.95,20.09,16.48,9.06,22.22,5.43"/>
      <path class="cls-1" d="m.91,242.71c3.26.3,17,1.51,34.16,2.04l.14,6c-17.97-.72-31.4-2.19-34.31-2.52,0-.9,0-2.79,0-5.51"/>
      <path class="cls-1" d="m43.97,251.02c-2.54-.06-5.01-.13-7.41-.22l-.15-6.01c4.55.13,9.31.21,14.18.21,16.12,0,33.29-.86,46.83-3.64.1,3.2.17,5.33.2,6.3-4.29.56-30.92,3.89-53.65,3.37"/>
    </g>
  </g>
</svg>