<?xml version="1.0" encoding="UTF-8"?>
<svg id="Layer_2" data-name="Layer 2" xmlns="http://www.w3.org/2000/svg" viewBox="0 0 118.95 73.49">
  <defs>
    <style>
      .cls-1 {
        fill: #fff;
        stroke-width: 0px;
      }
    </style>
  </defs>
  <g id="t-shirt">
    <g>
      <path class="cls-1" d="m0,51.44v-21.52L29.92,0h17.95v34.96h7.66v16.48h-7.66v5.56h4.41v16.48h-28.98v-16.48h4.3v-5.56H0Zm29.4-1.78v9.03h-4.41v13.02h25.51v-13.02h-4.51v-9.03h7.66v-13.02h-7.66V1.78h-15.75L1.78,30.24v19.42h27.61Zm-25.3-2.31v-15.75L31.6,4.09h12.18v34.86h7.66v8.4h-7.66v13.65h4.41v8.4h-20.89v-8.4h4.3v-13.65H4.09Zm27.51-8.4v-19.11l-15.43,15.43v3.67h15.43Zm-13.12-2.31l10.92-10.92v10.92h-10.92Zm9.13-1.68v-5.25l-5.25,5.25h5.25Z"/>
      <path class="cls-1" d="m63.1,61.73v-13.02h20.16v5.88l2.41,2.41h10.71l2.31-2.31v-12.91l-2.31-2.31h-21.52l-11.76-11.76V0h55.85v16.59h-35.7v4.09l2.41,2.41h22.15l11.13,11.13v27.51l-11.76,11.76h-32.34l-11.76-11.76Zm12.18,9.97h31.5l10.39-10.39v-26.77l-9.66-9.66h-22.15l-3.78-3.78v-6.3h35.59V1.78h-52.28v25.51l10.39,10.39h21.52l3.67,3.57v13.75l-3.67,3.67h-11.55l-3.67-3.67v-4.51h-16.69v10.81l10.39,10.39Zm-8.08-11.97v-7.03h12.07v3.78l4.51,4.51h14.38l4.62-4.62v-16.38l-4.51-4.51h-21.42l-9.66-9.66V4.09h47.77v8.4h-35.7v10.08l4.62,4.62h22.15l8.92,8.92v23.52l-9.76,9.76h-28.35l-9.66-9.66Z"/>
    </g>
  </g>
</svg>