<?xml version="1.0" encoding="UTF-8"?>
<svg id="Layer_2" data-name="Layer 2" xmlns="http://www.w3.org/2000/svg" viewBox="0 0 108.57 91.88">
  <defs>
    <style>
      .cls-1 {
        fill: #fff;
        stroke-width: 0px;
      }
    </style>
  </defs>
  <g id="t-shirt">
    <g>
      <g>
        <path class="cls-1" d="m.82,71.9v-19.5l27.1-27.1h16.26v31.67h6.94v14.93h-6.94v5.04h3.99v14.93h-26.25v-14.93h3.9v-5.04H.82Zm26.63-1.62v8.18h-3.99v11.79h23.11v-11.79h-4.09v-8.18h6.94v-11.79h-6.94v-31.57h-14.27L2.44,52.69v17.59h25.01Zm-22.92-2.09v-14.27l24.92-24.92h11.03v31.57h6.94v7.61h-6.94v12.36h3.99v7.61h-18.93v-7.61h3.9v-12.36H4.53Zm24.92-7.61v-17.31l-13.98,13.98v3.33h13.98Zm-11.89-2.09l9.89-9.89v9.89h-9.89Zm8.27-1.52v-4.76l-4.76,4.76h4.76Z"/>
        <path class="cls-1" d="m57.98,81.22v-11.79h18.26v5.33l2.19,2.19h9.7l2.09-2.09v-11.7l-2.09-2.09h-19.5l-10.65-10.65v-25.11h50.59v15.03h-32.33v3.71l2.19,2.19h20.07l10.08,10.08v24.92l-10.65,10.65h-29.29l-10.65-10.65Zm11.03,9.03h28.53l9.42-9.42v-24.25l-8.75-8.75h-20.07l-3.42-3.42v-5.71h32.24v-11.79h-47.36v23.11l9.42,9.42h19.5l3.33,3.23v12.46l-3.33,3.33h-10.46l-3.33-3.33v-4.09h-15.12v9.8l9.42,9.42Zm-7.32-10.84v-6.37h10.94v3.42l4.09,4.09h13.03l4.18-4.18v-14.84l-4.09-4.09h-19.4l-8.75-8.75v-19.69h43.27v7.61h-32.33v9.13l4.18,4.18h20.07l8.08,8.08v21.3l-8.84,8.84h-25.68l-8.75-8.75Z"/>
      </g>
      <g>
        <path class="cls-1" d="m0,14.56V.24h4.64c1.76,0,2.9.07,3.44.22.82.21,1.51.68,2.06,1.4.55.72.83,1.65.83,2.79,0,.88-.16,1.62-.48,2.22-.32.6-.72,1.07-1.22,1.41-.49.34-.99.57-1.5.68-.69.14-1.69.21-3,.21h-1.89v5.4H0ZM2.89,2.67v4.06h1.58c1.14,0,1.9-.07,2.29-.22s.69-.38.9-.7.33-.69.33-1.11c0-.52-.15-.95-.46-1.29-.31-.34-.69-.55-1.16-.64-.34-.06-1.04-.1-2.08-.1h-1.4Z"/>
        <path class="cls-1" d="m20.15,14.56v-1.55c-.38.55-.87.99-1.49,1.31-.62.32-1.27.48-1.95.48s-1.32-.15-1.87-.46c-.55-.31-.95-.74-1.2-1.29-.25-.55-.37-1.32-.37-2.3v-6.56h2.74v4.77c0,1.46.05,2.35.15,2.68s.28.59.55.78c.27.19.61.29,1.02.29.47,0,.89-.13,1.26-.39.37-.26.63-.58.76-.96.14-.38.21-1.31.21-2.8v-4.38h2.74v10.37h-2.55Z"/>
        <path class="cls-1" d="m34.97,14.56h-2.74v-5.29c0-1.12-.06-1.84-.18-2.17s-.31-.58-.57-.77c-.26-.18-.58-.27-.95-.27-.48,0-.9.13-1.28.39-.38.26-.64.61-.78,1.03-.14.43-.21,1.22-.21,2.38v4.7h-2.74V4.19h2.55v1.52c.9-1.17,2.04-1.76,3.42-1.76.61,0,1.16.11,1.66.33.5.22.88.5,1.14.83s.44.72.54,1.15c.1.43.15,1.05.15,1.85v6.45Z"/>
        <path class="cls-1" d="m42.51,4.19v2.19h-1.87v4.18c0,.85.02,1.34.05,1.48.04.14.12.26.24.35.13.09.28.14.46.14.25,0,.62-.09,1.1-.26l.23,2.13c-.64.27-1.36.41-2.17.41-.49,0-.94-.08-1.34-.25-.4-.17-.69-.38-.87-.64-.19-.26-.31-.62-.39-1.07-.06-.32-.09-.96-.09-1.93v-4.52h-1.26v-2.19h1.26v-2.06l2.75-1.6v3.66h1.87Z"/>
        <path class="cls-1" d="m46.47,7.35l-2.49-.45c.28-1,.76-1.74,1.45-2.23.68-.48,1.7-.72,3.05-.72,1.22,0,2.14.15,2.73.43.6.29,1.02.66,1.27,1.1.24.45.37,1.26.37,2.46l-.03,3.2c0,.91.04,1.58.13,2.02.09.43.25.9.49,1.39h-2.72c-.07-.18-.16-.45-.26-.81-.05-.16-.08-.27-.1-.32-.47.46-.97.8-1.5,1.03-.53.23-1.1.34-1.71.34-1.07,0-1.91-.29-2.52-.87-.62-.58-.92-1.31-.92-2.2,0-.59.14-1.11.42-1.57.28-.46.67-.81,1.18-1.05.5-.24,1.23-.46,2.18-.64,1.28-.24,2.17-.47,2.67-.67v-.27c0-.53-.13-.9-.39-1.13-.26-.22-.75-.34-1.48-.34-.49,0-.87.1-1.14.29-.27.19-.5.53-.66,1.01Zm3.67,2.23c-.35.12-.91.26-1.67.42-.76.16-1.26.32-1.49.48-.36.25-.54.58-.54.97s.14.72.43,1c.29.28.65.42,1.09.42.49,0,.97-.16,1.42-.49.33-.25.55-.55.65-.91.07-.23.11-.68.11-1.34v-.55Z"/>
        <path class="cls-1" d="m70.28,9.3l2.8.89c-.43,1.56-1.14,2.72-2.14,3.48-1,.76-2.27,1.14-3.8,1.14-1.9,0-3.46-.65-4.69-1.95s-1.84-3.07-1.84-5.33c0-2.38.62-4.23,1.85-5.55,1.23-1.32,2.85-1.98,4.85-1.98,1.75,0,3.17.52,4.27,1.55.65.61,1.14,1.49,1.46,2.64l-2.86.68c-.17-.74-.52-1.33-1.06-1.76-.54-.43-1.19-.64-1.96-.64-1.06,0-1.92.38-2.58,1.14-.66.76-.99,2-.99,3.7,0,1.81.33,3.1.98,3.87.65.77,1.5,1.15,2.54,1.15.77,0,1.43-.24,1.98-.73.55-.49.95-1.26,1.19-2.31Z"/>
        <path class="cls-1" d="m77.59,7.35l-2.49-.45c.28-1,.76-1.74,1.45-2.23.68-.48,1.7-.72,3.05-.72,1.22,0,2.14.15,2.73.43.6.29,1.02.66,1.27,1.1.24.45.37,1.26.37,2.46l-.03,3.2c0,.91.04,1.58.13,2.02.09.43.25.9.49,1.39h-2.72c-.07-.18-.16-.45-.26-.81-.05-.16-.08-.27-.1-.32-.47.46-.97.8-1.5,1.03-.53.23-1.1.34-1.71.34-1.07,0-1.91-.29-2.52-.87-.62-.58-.92-1.31-.92-2.2,0-.59.14-1.11.42-1.57.28-.46.67-.81,1.18-1.05.5-.24,1.23-.46,2.18-.64,1.28-.24,2.17-.47,2.67-.67v-.27c0-.53-.13-.9-.39-1.13-.26-.22-.75-.34-1.48-.34-.49,0-.87.1-1.14.29-.27.19-.5.53-.66,1.01Zm3.67,2.23c-.35.12-.91.26-1.67.42-.76.16-1.26.32-1.49.48-.36.25-.54.58-.54.97s.14.72.43,1c.29.28.65.42,1.09.42.49,0,.97-.16,1.42-.49.33-.25.55-.55.65-.91.07-.23.11-.68.11-1.34v-.55Z"/>
        <path class="cls-1" d="m96.1,14.56h-2.74v-5.29c0-1.12-.06-1.84-.18-2.17s-.31-.58-.57-.77c-.26-.18-.58-.27-.95-.27-.48,0-.9.13-1.28.39-.38.26-.64.61-.78,1.03-.14.43-.21,1.22-.21,2.38v4.7h-2.74V4.19h2.55v1.52c.9-1.17,2.04-1.76,3.42-1.76.61,0,1.16.11,1.66.33.5.22.88.5,1.14.83s.44.72.54,1.15c.1.43.15,1.05.15,1.85v6.45Z"/>
        <path class="cls-1" d="m100.94,7.35l-2.49-.45c.28-1,.76-1.74,1.45-2.23.68-.48,1.7-.72,3.05-.72,1.22,0,2.14.15,2.73.43.6.29,1.02.66,1.27,1.1.24.45.37,1.26.37,2.46l-.03,3.2c0,.91.04,1.58.13,2.02.09.43.25.9.49,1.39h-2.72c-.07-.18-.16-.45-.26-.81-.05-.16-.08-.27-.1-.32-.47.46-.97.8-1.5,1.03-.53.23-1.1.34-1.71.34-1.07,0-1.91-.29-2.52-.87-.62-.58-.92-1.31-.92-2.2,0-.59.14-1.11.42-1.57.28-.46.67-.81,1.18-1.05.5-.24,1.23-.46,2.18-.64,1.28-.24,2.17-.47,2.67-.67v-.27c0-.53-.13-.9-.39-1.13-.26-.22-.75-.34-1.48-.34-.49,0-.87.1-1.14.29-.27.19-.5.53-.66,1.01Zm3.67,2.23c-.35.12-.91.26-1.67.42-.76.16-1.26.32-1.49.48-.36.25-.54.58-.54.97s.14.72.43,1c.29.28.65.42,1.09.42.49,0,.97-.16,1.42-.49.33-.25.55-.55.65-.91.07-.23.11-.68.11-1.34v-.55Z"/>
      </g>
    </g>
  </g>
</svg>