<?xml version="1.0" encoding="UTF-8"?>
<svg id="Layer_2" data-name="Layer 2" xmlns="http://www.w3.org/2000/svg" viewBox="0 0 58.48 14.38">
  <defs>
    <style>
      .cls-1 {
        fill: #fff;
        stroke-width: 0px;
      }
    </style>
  </defs>
  <g id="t-shirt">
    <g>
      <path class="cls-1" d="m33.84,2.23c-.07,0-.07.05-.09.1-.7,1.74-1.41,3.49-2.12,5.25-.13.32-.12.32-.49.31-.32,0-.65-.02-.97-.02-.11,0-.17-.03-.21-.13-.48-1.24-.98-2.47-1.46-3.7-.25-.62-.49-1.25-.74-1.87-.01-.03-.02-.07-.07-.08-.05.03-.02.08-.02.11.04,1.84,0,3.68.02,5.52,0,.13-.04.17-.17.17-.42,0-.84.02-1.27.04-.14,0-.17-.04-.17-.16,0-2.52,0-5.03,0-7.55,0-.11.03-.16.16-.17.67-.03,1.34-.05,2.01-.06.12,0,.17.05.21.15.72,1.84,1.45,3.68,2.18,5.54.04.09.08.19.14.33.17-.43.32-.8.47-1.18.62-1.55,1.24-3.09,1.85-4.62.03-.08.08-.1.17-.1.67.04,1.34.1,2.01.15.14.01.14.09.14.19,0,.76,0,1.52,0,2.29,0,1.74,0,3.47,0,5.21,0,.16-.03.21-.2.19-.41-.05-.82-.08-1.23-.1-.14,0-.18-.06-.18-.19.02-1.86-.03-3.72.03-5.57,0-.02,0-.03,0-.05Z"/>
      <path class="cls-1" d="m49.31,5.98c0,.86,0,1.72,0,2.58,0,.38-.05.73-.19,1.04-.24.54-.7.78-1.31.78-1.02,0-2.06-.26-3.09-.82-.97-.53-1.49-1.34-1.56-2.35-.05-.65-.07-1.31.02-1.93.14-.98.85-1.55,1.87-1.5.89.04,1.75.33,2.58.91.15.11.14.02.14-.08,0-.62,0-1.24,0-1.87,0-.13.03-.16.17-.13.39.1.79.23,1.19.34.16.05.22.12.19.27,0,0,0,.01,0,.02,0,.91,0,1.83,0,2.74Zm-1.55,1.52s0,0,0,0c0-.2,0-.41,0-.62,0-.29-.08-.57-.25-.85-.37-.61-.9-.9-1.49-1.02-.87-.18-1.42.28-1.42,1.14,0,.35,0,.7,0,1.05.01.68.36,1.26.98,1.61.37.21.75.32,1.13.32.61,0,.96-.31,1.04-.91.03-.23,0-.48,0-.72Z"/>
      <path class="cls-1" d="m17.61,3.89c0-.91,0-1.83,0-2.74,0-.14.03-.19.18-.22.41-.06.82-.13,1.24-.2.15-.03.18.02.18.16,0,.61,0,1.21,0,1.82,0,.21,0,.21.2.11.92-.48,1.86-.66,2.81-.5.95.16,1.59.85,1.67,1.8.06.7.09,1.41-.03,2.12-.15.88-.67,1.5-1.52,1.85-1.1.45-2.22.59-3.31.39-.82-.15-1.24-.68-1.36-1.49-.07-.47-.04-.97-.04-1.46,0-.54,0-1.09,0-1.63Zm1.59,1.73c0,.18,0,.36,0,.54,0,.27.05.53.21.75.32.45.8.56,1.37.5.92-.1,1.68-.7,1.66-1.75,0-.33,0-.67,0-1,0-.3-.07-.58-.26-.81-.39-.48-.94-.55-1.55-.43-.88.18-1.41.84-1.42,1.71v.49Z"/>
      <path class="cls-1" d="m0,10.82c0-.56-.02-1.07.1-1.65.27-1.28.92-2.4,2-3.22,1.18-.9,2.38-1.38,3.53-1.21.72.11,1.2.54,1.42,1.27.03.11.02.16-.11.2-.45.16-.9.32-1.35.5-.08.03-.13.03-.16-.04-.34-.88-1.17-.89-2.09-.42-.97.5-1.55,1.31-1.72,2.42-.14.93-.15,1.82.02,2.61.24,1.14,1.07,1.19,2.17.65.8-.39,1.36-1.02,1.63-1.92.03-.1.08-.13.16-.16.45-.17.9-.33,1.35-.5.13-.05.14,0,.11.12-.27,1.08-.9,1.96-1.81,2.66-1.14.87-2.28,1.34-3.39,1.42-1.02.07-1.59-.44-1.79-1.45-.08-.41-.04-.87-.06-1.28Z"/>
      <path class="cls-1" d="m55.74,6.71c0,.91,0,1.83,0,2.74,0,.23,0,.23.19.22.81-.06,1.25-.55,1.47-1.34.15-.56.18-1.18.04-1.88-.07-.33-.07-.33-.34-.33-.35,0-.58-.13-.8-.48-.05-.09-.06-.13,0-.16.43-.2.85-.4,1.32-.51.06-.01.13-.02.2-.02.18.01.25.08.3.3.26,1.23.34,2.37.05,3.34-.32,1.06-1.07,1.49-2.18,1.44-.26-.01-.27-.02-.27.27-.03,1.29-.05,2.59-.13,3.86,0,.09.01.22-.07.21-.08,0-.15-.14-.2-.23-.18-.33-.26-.65-.32-.97-.21-1.08-.27-2.11-.29-3.13,0-.17-.04-.24-.21-.33-.95-.47-1.61-1.28-2.1-2.26-.39-.79-.57-1.57-.56-2.33,0-.22,0-.22-.2-.23-.3-.01-.51-.13-.65-.36-.06-.1-.07-.16.01-.21.48-.25.99-.47,1.54-.57.13-.02.29-.09.42.05.11.13.02.27,0,.39-.09,1.09-.1,2.21.24,3.43.15.52.37,1.02.81,1.44.15.15.32.25.49.33.13.07.19.05.18-.1-.04-1.25,0-2.46.04-3.69,0-.1,0-.2.01-.3.01-.12-.04-.16-.13-.14-.18.03-.34.09-.53.09-.29,0-.51-.15-.67-.44-.04-.08-.06-.14,0-.18.57-.38,1.12-.78,1.8-.96.12-.03.25-.04.39-.03.2.02.23.05.23.27,0,.35,0,.69,0,1.03,0,.59,0,1.17,0,1.76-.02-.01-.05-.02-.07-.03Z"/>
      <path class="cls-1" d="m40.1,6.16c-.73-.12-1.45-.22-2.18-.33-.16-.02-.21.02-.21.18.04.75.61,1.39,1.39,1.58.76.18,1.47.16,2.11-.14.11-.05.19-.03.29.07.24.24.48.47.72.7.09.09.08.12,0,.17-.73.39-1.56.5-2.46.39-.64-.08-1.27-.2-1.87-.51-.94-.48-1.48-1.21-1.64-2.2-.11-.66-.1-1.3.08-1.92.28-.97.96-1.52,1.97-1.63.9-.09,1.79.07,2.64.61.83.53,1.29,1.29,1.47,2.19.08.38.06.75.07,1.12,0,.13-.05.15-.17.13-.73-.15-1.46-.28-2.19-.4Zm-.78-1.05c.49.07.97.15,1.46.24.12.02.17,0,.15-.13-.02-.19-.06-.38-.15-.57-.28-.59-.75-.91-1.34-1.04-.79-.18-1.61.14-1.72,1.08-.02.14.02.2.17.21.48.05.95.13,1.42.2Z"/>
      <path class="cls-1" d="m16.74,5.13c0,.59.02,1.18,0,1.78-.06,1.22-.62,1.99-1.81,2.49-.87.37-1.74.57-2.6.55-.81-.02-1.28-.43-1.43-1.21-.05-.25-.07-.51-.07-.77,0-1.11,0-2.22,0-3.32,0-.15.05-.21.19-.25.39-.1.78-.21,1.18-.32.15-.04.2-.01.19.14,0,1.13,0,2.26,0,3.39,0,.43.1.81.45,1,.47.26,1.01.15,1.55-.18.52-.31.75-.79.77-1.32.03-.73.01-1.45.02-2.18,0-.47,0-.94,0-1.41,0-.12.04-.17.16-.19.41-.08.82-.16,1.23-.25.14-.03.19,0,.19.15,0,.64,0,1.27,0,1.91,0,0,0,0,0,0Z"/>
      <path class="cls-1" d="m7.62,6.74c0-.99,0-1.99,0-2.98,0-.18.05-.24.22-.29.37-.11.74-.24,1.11-.37.17-.06.22-.03.22.15,0,1.87,0,3.74,0,5.61,0,.16-.01.33.04.47.07.21.22.31.46.3.29-.02.59-.13.88-.22.15-.05.2-.01.19.14,0,.27,0,.53,0,.8,0,.08,0,.15-.11.18-.53.14-1.06.36-1.58.42-.84.1-1.32-.25-1.39-1.09-.03-.32-.02-.66-.02-.99,0-.71,0-1.42,0-2.12Z"/>
      <path class="cls-1" d="m57.45,13.91s-.07-.09-.1-.13c-.29-.44-.58-.87-.87-1.31-.07-.11-.09-.16,0-.21.3-.16.59-.33.87-.51.07-.05.12-.03.21.09.29.45.58.89.88,1.34.06.1.07.14,0,.18-.31.17-.61.34-.91.52-.02.01-.05.01-.07.02Z"/>
    </g>
  </g>
</svg>